<svg width="128" height="34" viewBox="0 0 128 34" fill="none" xmlns="http://www.w3.org/2000/svg">
<path d="M19.9968 17.5179C21.4001 17.9997 22.4993 18.7567 23.2945 19.7889C24.0899 20.7982 24.4875 22.0254 24.4875 23.4706C24.4875 25.5809 23.622 27.2095 21.8913 28.3565C20.1605 29.5035 17.658 30.0769 14.3836 30.0769H1.12241V5.99133H13.682C16.816 5.99133 19.2016 6.56481 20.8388 7.71173C22.476 8.83573 23.2945 10.3611 23.2945 12.288C23.2945 13.4349 23.0023 14.4671 22.4176 15.3847C21.8563 16.2793 21.0493 16.9904 19.9968 17.5179ZM7.9986 10.9117V15.5568H12.7698C15.1087 15.5568 16.2781 14.7769 16.2781 13.2169C16.2781 11.6801 15.1087 10.9117 12.7698 10.9117H7.9986ZM13.8223 25.1566C16.2547 25.1566 17.4709 24.3423 17.4709 22.7135C17.4709 21.0849 16.2547 20.2706 13.8223 20.2706H7.9986V25.1566H13.8223Z" fill="black"/>
<path d="M44.5388 25.3976H34.1543L32.2248 30.077H25.1381L35.9787 5.99146H42.8197L53.6953 30.077H46.4683L44.5388 25.3976ZM42.504 20.3739L39.3465 12.6666L36.1891 20.3739H42.504Z" fill="black"/>
<path d="M64.2952 30.5587C62.3072 30.5587 60.3776 30.3178 58.5065 29.836C56.6355 29.3544 55.1152 28.7121 53.9459 27.9091L56.2263 22.8856C57.3255 23.5968 58.6001 24.1702 60.0503 24.606C61.5003 25.0419 62.9269 25.2598 64.3303 25.2598C66.9965 25.2598 68.3297 24.606 68.3297 23.2985C68.3297 22.6104 67.9437 22.1057 67.172 21.7846C66.4236 21.4405 65.2073 21.085 63.5233 20.718C61.6757 20.3279 60.132 19.9151 58.8925 19.4792C57.6529 19.0205 56.5887 18.2979 55.7 17.3116C54.8112 16.3252 54.3668 14.9948 54.3668 13.3203C54.3668 11.8522 54.7761 10.5332 55.5947 9.36332C56.4133 8.17052 57.6295 7.23003 59.2433 6.54188C60.8805 5.85372 62.8803 5.50964 65.2424 5.50964C66.8563 5.50964 68.4467 5.69315 70.0136 6.06017C71.5807 6.40425 72.9605 6.92037 74.1535 7.60853L72.0133 12.6665C69.6745 11.4278 67.4059 10.8085 65.2073 10.8085C63.8275 10.8085 62.8217 11.0149 62.1903 11.4278C61.5588 11.8178 61.2431 12.3339 61.2431 12.9762C61.2431 13.6184 61.6172 14.1002 62.3656 14.4213C63.1141 14.7424 64.3185 15.0751 65.9792 15.4191C67.8503 15.8091 69.3939 16.2334 70.6101 16.6923C71.8496 17.128 72.9139 17.8391 73.8025 18.8255C74.7147 19.7889 75.1708 21.108 75.1708 22.7825C75.1708 24.2276 74.7615 25.535 73.9429 26.7049C73.1243 27.8748 71.8964 28.8152 70.2592 29.5264C68.622 30.2145 66.634 30.5587 64.2952 30.5587Z" fill="black"/>
<path d="M78.3795 5.99133H85.3259V30.0769H78.3795V5.99133Z" fill="black"/>
<path d="M98.8981 30.5587C96.9101 30.5587 94.9807 30.3178 93.1095 29.836C91.2384 29.3544 89.7183 28.7121 88.5488 27.9091L90.8292 22.8856C91.9284 23.5968 93.2031 24.1702 94.6532 24.606C96.1032 25.0419 97.53 25.2598 98.9332 25.2598C101.599 25.2598 102.933 24.606 102.933 23.2985C102.933 22.6104 102.547 22.1057 101.775 21.7846C101.027 21.4405 99.8103 21.085 98.1263 20.718C96.2787 20.3279 94.7351 19.9151 93.4955 19.4792C92.2559 19.0205 91.1917 18.2979 90.3029 17.3116C89.4141 16.3252 88.9697 14.9948 88.9697 13.3203C88.9697 11.8522 89.3791 10.5332 90.1977 9.36332C91.0163 8.17052 92.2324 7.23003 93.8463 6.54188C95.4835 5.85372 97.4832 5.50964 99.8453 5.50964C101.459 5.50964 103.05 5.69315 104.617 6.06017C106.184 6.40425 107.564 6.92037 108.756 7.60853L106.616 12.6665C104.277 11.4278 102.009 10.8085 99.8103 10.8085C98.4304 10.8085 97.4247 11.0149 96.7932 11.4278C96.1617 11.8178 95.846 12.3339 95.846 12.9762C95.846 13.6184 96.2201 14.1002 96.9687 14.4213C97.7171 14.7424 98.9216 15.0751 100.582 15.4191C102.453 15.8091 103.997 16.2334 105.213 16.6923C106.453 17.128 107.517 17.8391 108.406 18.8255C109.318 19.7889 109.774 21.108 109.774 22.7825C109.774 24.2276 109.364 25.535 108.546 26.7049C107.727 27.8748 106.499 28.8152 104.862 29.5264C103.225 30.2145 101.237 30.5587 98.8981 30.5587Z" fill="black"/>
<path d="M120.806 1.10547H126.735L115.158 33.5178H109.229L120.806 1.10547Z" fill="black"/>
</svg>
